{
  "accessors": [
    {
      "bufferView": 2,
      "componentType": 5126,
      "count": 65532,
      "max": [
        1.083146095275879,
        0.07970298826694489,
        1.089456558227539
      ],
      "min": [
        -1.0737063884735107,
        -0.04394453763961792,
        -1.027040958404541
      ],
      "type": "VEC3"
    },
    {
      "bufferView": 2,
      "byteOffset": 786384,
      "componentType": 5126,
      "count": 65532,
      "max": [
        0.9975191950798035,
        1.0,
        0.9998767375946045
      ],
      "min": [
        -0.9993106722831726,
        -1.0,
        -0.9982187151908875
      ],
      "type": "VEC3"
    },
    {
      "bufferView": 1,
      "componentType": 5126,
      "count": 65532,
      "max": [
        1.0000003576278687,
        1.0
      ],
      "min": [
        0.0,
        -3.5762786865234375e-07
      ],
      "type": "VEC2"
    },
    {
      "bufferView": 0,
      "componentType": 5125,
      "count": 389265,
      "type": "SCALAR"
    },
    {
      "bufferView": 2,
      "byteOffset": 1572768,
      "componentType": 5126,
      "count": 832,
      "max": [
        0.30661460757255554,
        0.07409694045782089,
        0.9703043103218079
      ],
      "min": [
        -0.9347856640815735,
        -0.00027536312700249255,
        -0.5929644107818604
      ],
      "type": "VEC3"
    },
    {
      "bufferView": 2,
      "byteOffset": 1582752,
      "componentType": 5126,
      "count": 832,
      "max": [
        0.9185062646865845,
        1.0,
        0.8346244096755981
      ],
      "min": [
        -0.7997662425041199,
        0.2719022333621979,
        -0.9012113809585571
      ],
      "type": "VEC3"
    },
    {
      "bufferView": 1,
      "byteOffset": 524256,
      "componentType": 5126,
      "count": 832,
      "max": [
        0.6328127384185791,
        0.98828125
      ],
      "min": [
        0.011718750931322575,
        0.16015613079071045
      ],
      "type": "VEC2"
    },
    {
      "bufferView": 0,
      "byteOffset": 1557060,
      "componentType": 5125,
      "count": 3951,
      "type": "SCALAR"
    },
    {
      "bufferView": 2,
      "byteOffset": 1592736,
      "componentType": 5126,
      "count": 5571,
      "max": [
        1.3039647340774536,
        0.1125718355178833,
        1.3039647340774536
      ],
      "min": [
        -1.3039644956588745,
        -0.23757445812225342,
        -1.3039644956588745
      ],
      "type": "VEC3"
    },
    {
      "bufferView": 2,
      "byteOffset": 1659588,
      "componentType": 5126,
      "count": 5571,
      "max": [
        0.9960225224494934,
        1.0,
        0.9960225224494934
      ],
      "min": [
        -0.9960225224494934,
        -1.0,
        -0.9960225224494934
      ],
      "type": "VEC3"
    },
    {
      "bufferView": 1,
      "byteOffset": 530912,
      "componentType": 5126,
      "count": 5571,
      "max": [
        1.0000001192092896,
        1.0
      ],
      "min": [
        0.0,
        0.75
      ],
      "type": "VEC2"
    },
    {
      "bufferView": 0,
      "byteOffset": 1572864,
      "componentType": 5125,
      "count": 31488,
      "type": "SCALAR"
    }
  ],
  "asset": {
    "extras": {
      "author": "ElenaDePasion (https://sketchfab.com/ElenaDePasion)",
      "license": "CC-BY-4.0 (http://creativecommons.org/licenses/by/4.0/)",
      "source": "https://sketchfab.com/3d-models/low-quality-food-dish-096899acd9514483bc2c2cf1f4767207",
      "title": "Low Quality Food Dish"
    },
    "generator": "Sketchfab-15.41.0",
    "version": "2.0"
  },
  "bufferViews": [
    {
      "buffer": 0,
      "byteLength": 1698816,
      "name": "floatBufferViews",
      "target": 34963
    },
    {
      "buffer": 0,
      "byteLength": 575480,
      "byteOffset": 1698816,
      "byteStride": 8,
      "name": "floatBufferViews",
      "target": 34962
    },
    {
      "buffer": 0,
      "byteLength": 1726440,
      "byteOffset": 2274296,
      "byteStride": 12,
      "name": "floatBufferViews",
      "target": 34962
    }
  ],
  "buffers": [
    {
      "byteLength": 4000736,
      "uri": "scene.bin"
    }
  ],
  "extensionsUsed": [
    "KHR_materials_specular"
  ],
  "images": [
    {
      "uri": "textures/Material.002_baseColor.jpeg"
    }
  ],
  "materials": [
    {
      "doubleSided": true,
      "extensions": {
        "KHR_materials_specular": {
          "specularColorFactor": [
            1.0,
            1.0,
            1.0
          ],
          "specularFactor": 1.0
        }
      },
      "name": "Material.002",
      "pbrMetallicRoughness": {
        "baseColorTexture": {
          "index": 0
        },
        "metallicFactor": 0.0,
        "roughnessFactor": 0.287402
      }
    },
    {
      "doubleSided": true,
      "extensions": {
        "KHR_materials_specular": {
          "specularColorFactor": [
            1.0,
            1.0,
            1.0
          ],
          "specularFactor": 1.0
        }
      },
      "name": "Material.001",
      "pbrMetallicRoughness": {
        "baseColorFactor": [
          0.413832,
          0.754595,
          0.8,
          1.0
        ],
        "metallicFactor": 0.0,
        "roughnessFactor": 0.129921
      }
    }
  ],
  "meshes": [
    {
      "name": "Object_0",
      "primitives": [
        {
          "attributes": {
            "NORMAL": 1,
            "POSITION": 0,
            "TEXCOORD_0": 2
          },
          "indices": 3,
          "material": 0,
          "mode": 4
        }
      ]
    },
    {
      "name": "Object_1",
      "primitives": [
        {
          "attributes": {
            "NORMAL": 5,
            "POSITION": 4,
            "TEXCOORD_0": 6
          },
          "indices": 7,
          "material": 0,
          "mode": 4
        }
      ]
    },
    {
      "name": "Object_2",
      "primitives": [
        {
          "attributes": {
            "NORMAL": 9,
            "POSITION": 8,
            "TEXCOORD_0": 10
          },
          "indices": 11,
          "material": 1,
          "mode": 4
        }
      ]
    }
  ],
  "nodes": [
    {
      "children": [
        1
      ],
      "matrix": [
        1.0,
        0.0,
        0.0,
        0.0,
        0.0,
        2.220446049250313e-16,
        -1.0,
        0.0,
        0.0,
        1.0,
        2.220446049250313e-16,
        0.0,
        0.0,
        0.0,
        0.0,
        1.0
      ],
      "name": "Sketchfab_model"
    },
    {
      "children": [
        2
      ],
      "name": "root"
    },
    {
      "children": [
        3
      ],
      "matrix": [
        1.0,
        0.0,
        0.0,
        0.0,
        0.0,
        2.220446049250313e-16,
        1.0,
        0.0,
        0.0,
        -1.0,
        2.220446049250313e-16,
        0.0,
        0.0,
        0.0,
        0.0,
        1.0
      ],
      "name": "GLTF_SceneRootNode"
    },
    {
      "children": [
        4,
        5,
        6
      ],
      "matrix": [
        0.5388012528419495,
        0.0,
        0.0,
        0.0,
        0.0,
        0.5388012528419495,
        0.0,
        0.0,
        0.0,
        0.0,
        0.5388012528419495,
        0.0,
        0.0,
        -0.10847815871238708,
        0.0,
        1.0
      ],
      "name": "Plane_0"
    },
    {
      "mesh": 0,
      "name": "Object_4"
    },
    {
      "mesh": 1,
      "name": "Object_5"
    },
    {
      "mesh": 2,
      "name": "Object_6"
    }
  ],
  "samplers": [
    {
      "magFilter": 9729,
      "minFilter": 9987,
      "wrapS": 10497,
      "wrapT": 10497
    }
  ],
  "scene": 0,
  "scenes": [
    {
      "name": "Sketchfab_Scene",
      "nodes": [
        0
      ]
    }
  ],
  "textures": [
    {
      "sampler": 0,
      "source": 0
    }
  ]
}
